<?xml version="1.0" encoding="utf-8"?>
<!-- Generator: Adobe Illustrator 27.1.1, SVG Export Plug-In . SVG Version: 6.00 Build 0)  -->
<svg version="1.1" id="Layer_1" xmlns="http://www.w3.org/2000/svg" xmlns:xlink="http://www.w3.org/1999/xlink" x="0px" y="0px"
	 viewBox="0 0 399.1 175.9" style="enable-background:new 0 0 399.1 175.9;" xml:space="preserve">
<style type="text/css">
	.st0{font-family:'NovelDisplay-Medium';}
	.st1{font-size:77.0033px;}
	.st2{letter-spacing:-3;}
	.st3{fill:#001508;}
</style>
<g>
	<text transform="matrix(1 0 0 1 104.814 76.7077)"><tspan x="0" y="0" class="st0 st1 st2">PLANTS  </tspan><tspan x="0" y="77" class="st0 st1 st2">PROJECT</tspan></text>
	<g>
		<g>
			<g>
				<path class="st3" d="M49.6,165.3c-26.1,0-47.4-21.3-47.4-47.4v-5.5c0-0.6,0.5-1,1-1H96c0.6,0,1,0.5,1,1v5.5
					C97,144.1,75.8,165.3,49.6,165.3z M4.3,113.5v4.4c0,25,20.3,45.3,45.3,45.3c25,0,45.3-20.3,45.3-45.3v-4.4H4.3z"/>
			</g>
			<g>
				<path class="st3" d="M90.6,140.6h-82c-0.4,0-0.7-0.2-0.9-0.5c-1.8-3.4-3.2-7.1-4.1-10.9c-0.1-0.3,0-0.6,0.2-0.9
					c0.2-0.2,0.5-0.4,0.8-0.4h90.1c0.3,0,0.6,0.1,0.8,0.4c0.2,0.2,0.3,0.6,0.2,0.9c-0.9,3.8-2.3,7.5-4.1,10.9
					C91.4,140.4,91,140.6,90.6,140.6z M9.3,138.6H90c1.4-2.7,2.5-5.6,3.3-8.6H5.9C6.7,132.9,7.9,135.8,9.3,138.6z"/>
			</g>
		</g>
		<g>
			<g>
				<path class="st3" d="M38.9,113.5H26.4c-0.3,0-0.6-0.1-0.7-0.3c-0.2-0.2-0.3-0.5-0.3-0.8l6.3-89.6c0-0.5,0.5-1,1-1s1,0.4,1,1
					l6.3,89.6c0,0.3-0.1,0.6-0.3,0.8C39.5,113.4,39.2,113.5,38.9,113.5z M27.5,111.5h10.3l-5.2-73.9L27.5,111.5z"/>
			</g>
			<g>
				<path class="st3" d="M37.8,91.8c-0.4,0-0.7-0.2-0.9-0.5c0,0-0.2-0.3-0.5-0.8c-0.1-0.1-0.1-0.3-0.1-0.4l-1.1-15.7
					c0-0.2,0-0.4,0.2-0.6c4.1-6.3,15.2-13.8,15.7-14.1c0.3-0.2,0.7-0.2,1-0.1c0.3,0.1,0.5,0.5,0.6,0.8c0.1,0.7,1.9,16.4-1.1,22.9
					C48.5,90,38.4,91.7,38,91.8C37.9,91.8,37.9,91.8,37.8,91.8z M37.3,74.6l1.1,15.1c2.3-0.5,9.2-2.4,11.4-7.3
					c2.2-4.8,1.5-15.8,1.1-20.1C47.7,64.5,40.5,70,37.3,74.6z"/>
			</g>
			<g>
				<path class="st3" d="M27.5,91.8c-0.1,0-0.1,0-0.2,0c-0.4-0.1-10.6-1.8-13.7-8.6c-3-6.5-1.1-22.2-1.1-22.9c0-0.4,0.3-0.7,0.6-0.8
					c0.3-0.1,0.7-0.1,1,0.1c0.5,0.3,11.6,7.9,15.7,14.2c0.1,0.2,0.2,0.4,0.2,0.6L29,90c0,0.1,0,0.3-0.1,0.4
					c-0.3,0.6-0.5,0.9-0.5,0.9C28.2,91.6,27.9,91.8,27.5,91.8z M28,89.9L28,89.9L28,89.9z M14.5,62.3c-0.4,4.3-1.1,15.3,1.1,20.1
					c2.2,4.8,9.2,6.8,11.4,7.3l1-15C24.9,70,17.6,64.5,14.5,62.3z"/>
			</g>
			<g>
				<path class="st3" d="M32.7,33.9c-0.2,0-0.4-0.1-0.6-0.2c-0.3-0.2-7.7-5.5-7.6-12.1c0.1-6.3,7.5-18.1,7.9-18.6
					c0.2-0.3,0.5-0.5,0.9-0.5c0.4,0,0.7,0.2,0.9,0.5c0.3,0.5,7.3,12.5,7.2,18.8c-0.1,6.6-7.7,11.6-8,11.8
					C33.1,33.8,32.9,33.9,32.7,33.9z M33.2,5.7c-2,3.3-6.5,11.5-6.6,16l0,0c-0.1,4.5,4.5,8.6,6.1,9.9c1.7-1.2,6.4-5.1,6.5-9.7
					C39.3,17.4,35.1,9.1,33.2,5.7z M25.5,21.7L25.5,21.7L25.5,21.7z"/>
			</g>
			<g>
				<path class="st3" d="M30.3,58C30.3,58,30.2,58,30.3,58c-0.4,0-7.6-0.4-10.3-5c-2.6-4.3-2.6-15.3-2.6-15.8c0-0.4,0.2-0.7,0.5-0.9
					c0.3-0.2,0.7-0.2,1,0c0.4,0.2,10.2,5.3,12.8,9.6c0.1,0.2,0.2,0.3,0.3,0.5l0,0.1c0.1,0.2,0.1,0.3,0.1,0.5L31.3,57
					c0,0.1,0,0.2-0.1,0.4l-0.9-0.4l0.9,0.5C31,57.7,30.7,58,30.3,58z M30.3,56.9L30.3,56.9L30.3,56.9z M19.4,39
					c0.1,3.2,0.5,10.1,2.2,13c1.7,2.7,5.8,3.6,7.7,3.9l0.6-8.6c0-0.1-0.1-0.1-0.1-0.2C28.2,44.3,22.7,40.8,19.4,39z"/>
			</g>
			<g>
				<path class="st3" d="M35.1,58c-0.2,0-0.5-0.1-0.7-0.2c-0.2-0.2-0.3-0.4-0.4-0.7l-0.7-10.5c0-0.2,0-0.4,0.1-0.6
					c2.6-4.3,12.3-9.4,12.7-9.6c0.3-0.2,0.7-0.2,1,0c0.3,0.2,0.5,0.5,0.5,0.9c0,0.5,0,11.5-2.6,15.8C42.7,57,36.9,57.8,35.1,58
					C35.1,58,35.1,58,35.1,58z M35.4,46.7l0.6,9.1c2-0.3,5.8-1.2,7.3-3.8c1.7-2.9,2.2-9.7,2.2-13C42.9,40.5,37.3,43.9,35.4,46.7z"/>
			</g>
		</g>
		<g>
			<g>
				<path class="st3" d="M78.3,113.5h-9.2c-0.3,0-0.6-0.1-0.7-0.3c-0.2-0.2-0.3-0.5-0.3-0.8l4.6-65.6c0-0.5,0.5-1,1-1s1,0.4,1,1
					l4.6,65.6c0,0.3-0.1,0.6-0.3,0.8C78.9,113.4,78.6,113.5,78.3,113.5z M70.3,111.5h7l-3.5-49.8L70.3,111.5z"/>
			</g>
			<g>
				<path class="st3" d="M77.5,97.6c-0.4,0-0.7-0.2-0.9-0.5c0,0-0.1-0.2-0.3-0.6c-0.1-0.1-0.1-0.3-0.1-0.4l-0.8-11.5
					c0-0.2,0-0.4,0.2-0.6c3-4.6,11.2-10.2,11.5-10.4c0.3-0.2,0.7-0.2,1-0.1c0.3,0.1,0.5,0.5,0.6,0.8c0.1,0.5,1.4,12-0.8,16.9
					c-2.3,5.1-9.9,6.4-10.2,6.4C77.6,97.6,77.6,97.6,77.5,97.6z M77.4,84.8l0.7,10.6c1.9-0.5,6.4-1.9,7.8-5.1
					c1.5-3.3,1.1-10.7,0.8-14.1C84.4,78,79.6,81.7,77.4,84.8z"/>
			</g>
			<g>
				<path class="st3" d="M70,97.6c-0.1,0-0.1,0-0.2,0c-0.3-0.1-7.9-1.4-10.2-6.4c-2.2-4.8-0.9-16.4-0.8-16.9c0-0.4,0.3-0.7,0.6-0.8
					c0.3-0.1,0.7-0.1,1,0.1C60.8,73.8,69,79.4,72,84c0.1,0.2,0.2,0.4,0.2,0.6l-0.8,11.4c0,0.1,0,0.3-0.1,0.4
					c-0.2,0.4-0.4,0.7-0.4,0.7C70.7,97.5,70.3,97.6,70,97.6z M70.3,96L70.3,96L70.3,96z M60.7,76.3C60.4,79.6,60,87,61.5,90.3
					c1.5,3.2,6,4.6,7.9,5.1l0.7-10.6C67.9,81.7,63.1,78,60.7,76.3z"/>
			</g>
			<g>
				<path class="st3" d="M73.8,55.3c-0.2,0-0.4-0.1-0.6-0.2c-0.2-0.2-5.8-4.1-5.7-9.1c0.1-4.7,5.6-13.4,5.8-13.7
					c0.2-0.3,0.5-0.5,0.9-0.5c0.4,0,0.7,0.2,0.9,0.5c0.2,0.4,5.4,9.2,5.3,13.9c-0.1,5-5.8,8.7-6,8.8C74.1,55.2,74,55.3,73.8,55.3z
					 M74.1,34.9c-1.8,3-4.5,8.3-4.6,11.2c-0.1,3.1,2.9,5.9,4.2,6.9c1.3-1,4.4-3.7,4.5-6.7C78.3,43.4,75.8,38,74.1,34.9z"/>
			</g>
			<g>
				<path class="st3" d="M72,72.9C72,72.9,72,72.9,72,72.9c-0.3,0-5.7-0.3-7.8-3.8c-1.9-3.2-1.9-11.3-1.9-11.7
					c0-0.4,0.2-0.7,0.5-0.9c0.3-0.2,0.7-0.2,1,0c0.3,0.2,7.5,3.9,9.4,7.2c0.1,0.1,0.1,0.2,0.2,0.4l0,0.1c0.1,0.2,0.1,0.3,0.1,0.5
					L73,71.9c0,0.1,0,0.2-0.1,0.3l0,0C72.8,72.7,72.4,72.9,72,72.9z M72,71.8L72,71.8L72,71.8z M64.4,59.2c0.1,2.8,0.5,7.1,1.6,8.9
					c1.1,1.8,3.7,2.4,5.1,2.7l0.4-5.9c0,0,0,0,0,0C70.4,62.9,66.8,60.6,64.4,59.2z"/>
			</g>
			<g>
				<path class="st3" d="M75.5,72.9c-0.2,0-0.5-0.1-0.7-0.2c-0.2-0.2-0.3-0.4-0.4-0.7l-0.5-7.7c0-0.2,0-0.4,0.1-0.6
					c2-3.2,9.1-7,9.4-7.1c0.3-0.2,0.7-0.2,1,0c0.3,0.2,0.5,0.5,0.5,0.9c0,0.3,0,8.5-1.9,11.7C81.3,72.1,76.9,72.8,75.5,72.9
					C75.5,72.9,75.5,72.9,75.5,72.9z M76,64.5l0.4,6.2c1.5-0.3,3.9-0.9,4.9-2.6c1.1-1.8,1.5-6.1,1.6-8.9
					C80.6,60.5,77.3,62.7,76,64.5z"/>
			</g>
		</g>
	</g>
</g>
</svg>
