<?xml version="1.0" encoding="utf-8"?>
<!-- Generator: Adobe Illustrator 27.1.1, SVG Export Plug-In . SVG Version: 6.00 Build 0)  -->
<svg version="1.1" id="Layer_1" xmlns="http://www.w3.org/2000/svg" xmlns:xlink="http://www.w3.org/1999/xlink" x="0px" y="0px"
	 viewBox="0 0 1000 1000" style="enable-background:new 0 0 1000 1000;" xml:space="preserve">
<style type="text/css">
	.st0{fill:#009245;}
	.st1{fill:#29ABE2;}
	.st2{fill:#754C24;}
</style>
<g>
	<g>
		<path class="st0" d="M451.2,943.3c-1.6,0-3.2-0.6-4.3-1.8c-1.2-1.2-1.9-2.8-1.9-4.5V583.8c0-25.9-10.7-51.4-29.4-69.7
			c-18.2-17.9-42-27.7-66.8-27.1c-50.8,0.9-92.3,42.7-92.9,93.4c0.4,0.9,1.6,2.8,4.2,6.9c0.9,1.3,1.9,2.7,3.2,4
			c49.9,52.3,48.9,136.5-2.2,187.6l-15.9,15.9c-1.2,1.2-2.7,1.8-4.4,1.8c0,0,0,0,0,0c-1.6,0-3.2-0.7-4.4-1.8l-20.1-20.1
			c-51.3-51.3-52.8-133.1-3.5-186.2c2.4-2.6,4.1-5.1,5.2-7.6c0,0,0-0.1,0.1-0.1c0.5-72.6,59.7-131.6,132.4-131.6
			c36.1,0,69.7,14.3,94.5,39.8v-15.6c0-93.5,74.7-170,166.6-170.5c0.3,0,0.5,0,0.8,0c85.3,0,158.4,66.2,166.6,151
			c0.3,2.8,1.6,5.5,3.8,7.7l6.6,6.6c30.6,30.6,47.4,71.2,47.4,114.5s-16.8,83.9-47.4,114.5l-18.8,18.8c-2.4,2.4-6.4,2.4-8.8,0
			l-25.1-25c-63.1-63.2-63.1-165.9,0-229c3-3,4.4-7.2,3.8-11.2c-9.6-62.9-64.5-109.9-128.1-109.9c-0.5,0-1.1,0-1.6,0
			c-69.3,0.9-127.9,61.5-127.9,132.4v463.4c0,3.4-2.7,6.1-6,6.2l-25.5,0.7C451.3,943.3,451.3,943.3,451.2,943.3z M350.4,474.5
			c27.6,0,53.8,10.9,73.9,30.7c21,20.7,33.1,49.3,33.1,78.6v346.9l13-0.4V473c0-77.6,64.2-143.9,140.2-144.8c0.6,0,1.2,0,1.8,0
			c69.7,0,129.8,51.5,140.4,120.4c1.2,7.9-1.5,16.1-7.3,21.9c-58.3,58.3-58.3,153.2,0,211.5l20.7,20.6l14.4-14.4l0,0
			c28.2-28.2,43.8-65.8,43.8-105.7c0-39.9-15.6-77.5-43.8-105.7l-6.6-6.6c-4.2-4.2-6.8-9.6-7.4-15.3
			c-7.6-78.5-75.3-139.8-154.2-139.8c-0.3,0-0.5,0-0.8,0c-85,0.4-154.2,71.3-154.2,158v32.4c0,2.7-1.7,5-4.2,5.9
			c-2.5,0.8-5.3,0-6.9-2.1c-23-30.4-57.9-47.8-95.8-47.8c-66.2,0-120,53.8-120,120c0,1.4-0.4,2.7-1.1,4.2c-1.7,3.9-4.1,7.6-7.5,11.2
			c-44.8,48.2-43.4,122.4,3.2,169l15.7,15.7l11.5-11.5c46.4-46.4,47.3-122.8,2-170.2c-1.8-1.9-3.3-3.8-4.6-5.8
			c-5.9-9.1-6.2-10.7-6.2-12.6c0-58,47.1-105.9,105.1-107C349.2,474.5,349.8,474.5,350.4,474.5z"/>
	</g>
	<g>
		<path class="st1" d="M304.5,392.2c-16.5,0-29.9-13.4-29.9-29.9c0-16.5,13.4-29.9,29.9-29.9s29.9,13.4,29.9,29.9
			C334.4,378.8,321,392.2,304.5,392.2z M304.5,344.8c-9.6,0-17.5,7.8-17.5,17.5c0,9.6,7.8,17.5,17.5,17.5c9.6,0,17.5-7.8,17.5-17.5
			C322,352.7,314.1,344.8,304.5,344.8z"/>
	</g>
	<g>
		<path class="st1" d="M808.7,344.8c-20.4,0-37-16.6-37-37s16.6-37,37-37c20.4,0,37,16.6,37,37S829.1,344.8,808.7,344.8z
			 M808.7,283.3c-13.5,0-24.5,11-24.5,24.5s11,24.5,24.5,24.5c13.5,0,24.5-11,24.5-24.5S822.2,283.3,808.7,283.3z"/>
	</g>
	<g>
		<path class="st1" d="M480.1,278.9c-18.2,0-33-14.8-33-33s14.8-33,33-33c18.2,0,33,14.8,33,33S498.3,278.9,480.1,278.9z
			 M480.1,225.4c-11.3,0-20.5,9.2-20.5,20.5c0,11.3,9.2,20.5,20.5,20.5s20.5-9.2,20.5-20.5C500.6,234.6,491.4,225.4,480.1,225.4z"/>
	</g>
	<g>
		<path class="st1" d="M426.6,122.6c-18.2,0-33-14.8-33-33s14.8-33,33-33c18.2,0,33,14.8,33,33S444.8,122.6,426.6,122.6z
			 M426.6,69.1c-11.3,0-20.5,9.2-20.5,20.5s9.2,20.5,20.5,20.5s20.5-9.2,20.5-20.5S437.9,69.1,426.6,69.1z"/>
	</g>
	<g>
		<path class="st1" d="M649.8,187.3c-18.2,0-33-14.8-33-33s14.8-33,33-33s33,14.8,33,33S668,187.3,649.8,187.3z M649.8,133.7
			c-11.3,0-20.5,9.2-20.5,20.5s9.2,20.5,20.5,20.5s20.5-9.2,20.5-20.5S661.2,133.7,649.8,133.7z"/>
	</g>
	<g>
		<path class="st0" d="M236.6,729.9c-2.3,0-4.1-1.9-4.1-4.1v-97.2c0-2.3,1.9-4.1,4.1-4.1s4.1,1.9,4.1,4.1v97.2
			C240.8,728,238.9,729.9,236.6,729.9z"/>
	</g>
	<g>
		<path class="st0" d="M760.2,627c-2.3,0-4.1-1.9-4.1-4.1V508.7c0-2.3,1.9-4.1,4.1-4.1s4.1,1.9,4.1,4.1v114.2
			C764.3,625.1,762.5,627,760.2,627z"/>
	</g>
	<g>
		<path class="st2" d="M391.6,943H123.3c-3.4,0-6.2-2.8-6.2-6.2c0-55.5,63-100.6,140.4-100.6c77.4,0,140.4,45.1,140.4,100.6
			C397.8,940.2,395.1,943,391.6,943z M129.8,930.5h255.2c-4.6-45.7-60.1-81.9-127.6-81.9C189.9,848.6,134.5,884.8,129.8,930.5z"/>
	</g>
	<g>
		<path class="st0" d="M728.9,943H570.7c-3.3,0-6-2.5-6.2-5.8c-5.4-80.3,24.1-159,80.9-215.9c2.4-2.4,6.4-2.4,8.8,0
			c52.6,52.6,81.6,122.5,81.6,196.9c0,6.3-0.2,12.6-0.6,19C734.9,940.5,732.2,943,728.9,943z M576.6,930.5h146.5
			c0.2-4.1,0.3-8.2,0.3-12.3c0-69-26.1-133.9-73.5-183.6C599.7,787.2,573.3,857.9,576.6,930.5z"/>
	</g>
	<g>
		<path class="st0" d="M649.8,943c-3.4,0-6.2-2.8-6.2-6.2V808.4c0-3.4,2.8-6.2,6.2-6.2s6.2,2.8,6.2,6.2v128.3
			C656.1,940.2,653.3,943,649.8,943z"/>
	</g>
	<g>
		<path class="st2" d="M958.1,943H41.9c-3.4,0-6.2-2.8-6.2-6.2c0-3.4,2.8-6.2,6.2-6.2h916.3c3.4,0,6.2,2.8,6.2,6.2
			C964.4,940.2,961.6,943,958.1,943z"/>
	</g>
</g>
</svg>
